<svg width="26" height="26" viewBox="0 0 26 26" fill="none" xmlns="http://www.w3.org/2000/svg">
<g clip-path="url(#clip0_11_24)">
<path d="M22.5506 20.0237L18.2655 15.7394C18.0721 15.546 17.8099 15.4386 17.5349 15.4386H16.8343C18.0205 13.9216 18.7254 12.0137 18.7254 9.93815C18.7254 5.00068 14.724 1 9.78556 1C4.84715 1 0.845703 5.00068 0.845703 9.93815C0.845703 14.8756 4.84715 18.8763 9.78556 18.8763C11.8615 18.8763 13.7698 18.1716 15.287 16.9855V17.686C15.287 17.961 15.3945 18.2231 15.5879 18.4165L19.873 22.7008C20.277 23.1047 20.9303 23.1047 21.33 22.7008L22.5463 21.4847C22.9504 21.0808 22.9504 20.4276 22.5506 20.0237ZM9.78556 15.4386C6.74687 15.4386 4.28411 12.9806 4.28411 9.93815C4.28411 6.90004 6.74257 4.43775 9.78556 4.43775C12.8242 4.43775 15.287 6.89574 15.287 9.93815C15.287 12.9763 12.8285 15.4386 9.78556 15.4386Z" fill="white"/>
</g>
<defs>
<clipPath id="clip0_11_24">
<rect width="25.0048" height="25" fill="white" transform="translate(0.995239 0.615723)"/>
</clipPath>
</defs>
</svg>
